<svg width="213" height="184" viewBox="0 0 213 184" fill="none" xmlns="http://www.w3.org/2000/svg">
<path d="M5.48941 179.861C5.48941 178.345 4.26056 177.116 2.74471 177.116C1.22885 177.116 0 178.345 0 179.861C0 181.377 1.22885 182.605 2.74471 182.605C4.26056 182.605 5.48941 181.377 5.48941 179.861Z" fill="#EEA383"/>
<path d="M5.4894 150.371C5.4894 148.855 4.26055 147.626 2.74469 147.626C1.22883 147.626 0 148.855 0 150.371C0 151.886 1.22883 153.115 2.74469 153.115C4.26055 153.115 5.4894 151.886 5.4894 150.371Z" fill="#EEA383"/>
<path d="M5.4894 120.881C5.4894 119.365 4.26055 118.136 2.7447 118.136C1.22884 118.136 0 119.365 0 120.881C0 122.397 1.22884 123.625 2.7447 123.625C4.26055 123.625 5.4894 122.397 5.4894 120.881Z" fill="#EEA383"/>
<path d="M5.4894 91.3906C5.4894 89.8747 4.26056 88.6459 2.74471 88.6459C1.22885 88.6459 0 89.8747 0 91.3906C0 92.9064 1.22885 94.1353 2.74471 94.1353C4.26056 94.1353 5.4894 92.9064 5.4894 91.3906Z" fill="#EEA383"/>
<path d="M5.4894 61.9003C5.4894 60.3845 4.26055 59.1556 2.7447 59.1556C1.22884 59.1556 0 60.3845 0 61.9003C0 63.4162 1.22884 64.645 2.7447 64.645C4.26055 64.645 5.4894 63.4162 5.4894 61.9003Z" fill="#EEA383"/>
<path d="M5.4894 32.4106C5.4894 30.8947 4.26056 29.6659 2.7447 29.6659C1.22884 29.6659 0 30.8947 0 32.4106C0 33.9264 1.22884 35.1553 2.7447 35.1553C4.26056 35.1553 5.4894 33.9264 5.4894 32.4106Z" fill="#EEA383"/>
<path d="M5.4894 2.92034C5.4894 1.40448 4.26056 0.175639 2.7447 0.175639C1.22884 0.175639 0 1.40448 0 2.92034C0 4.4362 1.22884 5.66504 2.7447 5.66504C4.26056 5.66504 5.4894 4.4362 5.4894 2.92034Z" fill="#EEA383"/>
<path d="M35.132 179.86C35.132 178.344 33.9031 177.116 32.3873 177.116C30.8714 177.116 29.6426 178.344 29.6426 179.86C29.6426 181.376 30.8714 182.605 32.3873 182.605C33.9031 182.605 35.132 181.376 35.132 179.86Z" fill="#EEA383"/>
<path d="M35.132 150.37C35.132 148.854 33.9031 147.625 32.3873 147.625C30.8714 147.625 29.6426 148.854 29.6426 150.37C29.6426 151.886 30.8714 153.115 32.3873 153.115C33.9031 153.115 35.132 151.886 35.132 150.37Z" fill="#EEA383"/>
<path d="M35.132 120.88C35.132 119.364 33.9031 118.135 32.3873 118.135C30.8714 118.135 29.6426 119.364 29.6426 120.88C29.6426 122.396 30.8714 123.625 32.3873 123.625C33.9031 123.625 35.132 122.396 35.132 120.88Z" fill="#EEA383"/>
<path d="M35.132 91.3901C35.132 89.8742 33.9031 88.6454 32.3873 88.6454C30.8714 88.6454 29.6426 89.8742 29.6426 91.3901C29.6426 92.9059 30.8714 94.1348 32.3873 94.1348C33.9031 94.1348 35.132 92.9059 35.132 91.3901Z" fill="#EEA383"/>
<path d="M35.132 61.8998C35.132 60.384 33.9031 59.1551 32.3873 59.1551C30.8714 59.1551 29.6426 60.384 29.6426 61.8998C29.6426 63.4157 30.8714 64.6445 32.3873 64.6445C33.9031 64.6445 35.132 63.4157 35.132 61.8998Z" fill="#EEA383"/>
<path d="M35.132 32.4101C35.132 30.8942 33.9031 29.6654 32.3873 29.6654C30.8714 29.6654 29.6426 30.8942 29.6426 32.4101C29.6426 33.9259 30.8714 35.1548 32.3873 35.1548C33.9031 35.1548 35.132 33.9259 35.132 32.4101Z" fill="#EEA383"/>
<path d="M35.13 2.91985C35.13 1.404 33.9012 0.17515 32.3853 0.17515C30.8695 0.17515 29.6406 1.404 29.6406 2.91985C29.6406 4.43571 30.8695 5.66455 32.3853 5.66455C33.9012 5.66455 35.13 4.43571 35.13 2.91985Z" fill="#EEA383"/>
<path d="M64.7746 179.861C64.7746 178.345 63.5457 177.116 62.0299 177.116C60.514 177.116 59.2852 178.345 59.2852 179.861C59.2852 181.377 60.514 182.605 62.0299 182.605C63.5457 182.605 64.7746 181.377 64.7746 179.861Z" fill="#EEA383"/>
<path d="M64.7746 150.371C64.7746 148.855 63.5457 147.626 62.0298 147.626C60.514 147.626 59.2852 148.855 59.2852 150.371C59.2852 151.886 60.514 153.115 62.0298 153.115C63.5457 153.115 64.7746 151.886 64.7746 150.371Z" fill="#EEA383"/>
<path d="M64.7746 120.88C64.7746 119.364 63.5457 118.136 62.0299 118.136C60.514 118.136 59.2852 119.364 59.2852 120.88C59.2852 122.396 60.514 123.625 62.0299 123.625C63.5457 123.625 64.7746 122.396 64.7746 120.88Z" fill="#EEA383"/>
<path d="M64.7746 91.3906C64.7746 89.8747 63.5457 88.6459 62.0299 88.6459C60.514 88.6459 59.2852 89.8747 59.2852 91.3906C59.2852 92.9064 60.514 94.1353 62.0299 94.1353C63.5457 94.1353 64.7746 92.9064 64.7746 91.3906Z" fill="#EEA383"/>
<path d="M64.7746 61.9003C64.7746 60.3845 63.5457 59.1556 62.0299 59.1556C60.514 59.1556 59.2852 60.3845 59.2852 61.9003C59.2852 63.4162 60.514 64.645 62.0299 64.645C63.5457 64.645 64.7746 63.4162 64.7746 61.9003Z" fill="#EEA383"/>
<path d="M64.7746 32.4101C64.7746 30.8942 63.5457 29.6654 62.0299 29.6654C60.514 29.6654 59.2852 30.8942 59.2852 32.4101C59.2852 33.9259 60.514 35.1548 62.0299 35.1548C63.5457 35.1548 64.7746 33.9259 64.7746 32.4101Z" fill="#EEA383"/>
<path d="M64.7746 2.92034C64.7746 1.40448 63.5457 0.17564 62.0299 0.17564C60.514 0.17564 59.2852 1.40448 59.2852 2.92034C59.2852 4.43619 60.514 5.66504 62.0299 5.66504C63.5457 5.66504 64.7746 4.43619 64.7746 2.92034Z" fill="#EEA383"/>
<path d="M94.4171 179.86C94.4171 178.344 93.1883 177.116 91.6724 177.116C90.1566 177.116 88.9277 178.344 88.9277 179.86C88.9277 181.376 90.1566 182.605 91.6724 182.605C93.1883 182.605 94.4171 181.376 94.4171 179.86Z" fill="#EEA383"/>
<path d="M94.4171 150.37C94.4171 148.854 93.1883 147.625 91.6724 147.625C90.1566 147.625 88.9277 148.854 88.9277 150.37C88.9277 151.886 90.1566 153.115 91.6724 153.115C93.1883 153.115 94.4171 151.886 94.4171 150.37Z" fill="#EEA383"/>
<path d="M94.4171 120.88C94.4171 119.364 93.1883 118.135 91.6724 118.135C90.1566 118.135 88.9277 119.364 88.9277 120.88C88.9277 122.396 90.1566 123.625 91.6724 123.625C93.1883 123.625 94.4171 122.396 94.4171 120.88Z" fill="#EEA383"/>
<path d="M94.4171 91.3901C94.4171 89.8742 93.1883 88.6454 91.6724 88.6454C90.1566 88.6454 88.9277 89.8742 88.9277 91.3901C88.9277 92.9059 90.1566 94.1348 91.6724 94.1348C93.1883 94.1348 94.4171 92.9059 94.4171 91.3901Z" fill="#EEA383"/>
<path d="M94.4171 61.8998C94.4171 60.384 93.1883 59.1551 91.6724 59.1551C90.1566 59.1551 88.9277 60.384 88.9277 61.8998C88.9277 63.4157 90.1566 64.6445 91.6724 64.6445C93.1883 64.6445 94.4171 63.4157 94.4171 61.8998Z" fill="#EEA383"/>
<path d="M94.4171 32.4096C94.4171 30.8937 93.1883 29.6649 91.6724 29.6649C90.1566 29.6649 88.9277 30.8937 88.9277 32.4096C88.9277 33.9255 90.1566 35.1543 91.6724 35.1543C93.1883 35.1543 94.4171 33.9255 94.4171 32.4096Z" fill="#EEA383"/>
<path d="M94.4171 2.91936C94.4171 1.40351 93.1883 0.174667 91.6724 0.174667C90.1566 0.174667 88.9277 1.40351 88.9277 2.91936C88.9277 4.43522 90.1566 5.66406 91.6724 5.66406C93.1883 5.66406 94.4171 4.43522 94.4171 2.91936Z" fill="#EEA383"/>
<path d="M124.062 179.861C124.062 178.345 122.833 177.116 121.317 177.116C119.801 177.116 118.572 178.345 118.572 179.861C118.572 181.377 119.801 182.605 121.317 182.605C122.833 182.605 124.062 181.377 124.062 179.861Z" fill="#EEA383"/>
<path d="M124.062 150.371C124.062 148.855 122.833 147.626 121.317 147.626C119.801 147.626 118.572 148.855 118.572 150.371C118.572 151.886 119.801 153.115 121.317 153.115C122.833 153.115 124.062 151.886 124.062 150.371Z" fill="#EEA383"/>
<path d="M124.062 120.88C124.062 119.364 122.833 118.136 121.317 118.136C119.801 118.136 118.572 119.364 118.572 120.88C118.572 122.396 119.801 123.625 121.317 123.625C122.833 123.625 124.062 122.396 124.062 120.88Z" fill="#EEA383"/>
<path d="M124.06 91.3901C124.06 89.8742 122.831 88.6454 121.315 88.6454C119.799 88.6454 118.57 89.8742 118.57 91.3901C118.57 92.9059 119.799 94.1348 121.315 94.1348C122.831 94.1348 124.06 92.9059 124.06 91.3901Z" fill="#EEA383"/>
<path d="M124.06 61.9003C124.06 60.3845 122.831 59.1556 121.315 59.1556C119.799 59.1556 118.57 60.3845 118.57 61.9003C118.57 63.4162 119.799 64.645 121.315 64.645C122.831 64.645 124.06 63.4162 124.06 61.9003Z" fill="#EEA383"/>
<path d="M124.062 32.4101C124.062 30.8942 122.833 29.6654 121.317 29.6654C119.801 29.6654 118.572 30.8942 118.572 32.4101C118.572 33.9259 119.801 35.1548 121.317 35.1548C122.833 35.1548 124.062 33.9259 124.062 32.4101Z" fill="#EEA383"/>
<path d="M124.06 2.91985C124.06 1.40399 122.831 0.175148 121.315 0.175148C119.799 0.175148 118.57 1.40399 118.57 2.91985C118.57 4.4357 119.799 5.66455 121.315 5.66455C122.831 5.66455 124.06 4.4357 124.06 2.91985Z" fill="#EEA383"/>
</svg>
